<svg width="32" height="24" viewBox="0 0 32 24" fill="none" xmlns="http://www.w3.org/2000/svg">
<path d="M13.1708 17.3083C13.0249 17.1625 12.952 16.9898 12.952 16.7903C12.952 16.5912 13.0249 16.4188 13.1708 16.2729L17.4437 12L13.1562 7.71251C13.0201 7.5764 12.952 7.40626 12.952 7.20209C12.952 6.99793 13.0249 6.82293 13.1708 6.67709C13.3166 6.53126 13.4893 6.45834 13.6888 6.45834C13.8879 6.45834 14.0604 6.53126 14.2062 6.67709L19.1062 11.5917C19.1645 11.65 19.2059 11.7132 19.2304 11.7813C19.2546 11.8493 19.2666 11.9222 19.2666 12C19.2666 12.0778 19.2546 12.1507 19.2304 12.2188C19.2059 12.2868 19.1645 12.35 19.1062 12.4083L14.1916 17.3229C14.0555 17.459 13.8879 17.5271 13.6888 17.5271C13.4893 17.5271 13.3166 17.4542 13.1708 17.3083Z" fill="#181817"/>
</svg>
