<svg width="24" height="24" viewBox="0 0 24 24" fill="none" xmlns="http://www.w3.org/2000/svg">
<path d="M8.35355 3.64645C8.15829 3.45118 7.84171 3.45118 7.64645 3.64645L4.46447 6.82843C4.2692 7.02369 4.2692 7.34027 4.46447 7.53553C4.65973 7.7308 4.97631 7.7308 5.17157 7.53553L8 4.70711L10.8284 7.53553C11.0237 7.7308 11.3403 7.7308 11.5355 7.53553C11.7308 7.34027 11.7308 7.02369 11.5355 6.82843L8.35355 3.64645ZM7.5 4L7.5 20L8.5 20L8.5 4L7.5 4Z" fill="#FF9F0E"/>
<path d="M15.6464 20.3536C15.8417 20.5488 16.1583 20.5488 16.3536 20.3536L19.5355 17.1716C19.7308 16.9763 19.7308 16.6597 19.5355 16.4645C19.3403 16.2692 19.0237 16.2692 18.8284 16.4645L16 19.2929L13.1716 16.4645C12.9763 16.2692 12.6597 16.2692 12.4645 16.4645C12.2692 16.6597 12.2692 16.9763 12.4645 17.1716L15.6464 20.3536ZM15.5 4L15.5 20L16.5 20L16.5 4L15.5 4Z" fill="#FF9F0E"/>
</svg>
